<svg width="50" height="51" viewBox="0 0 50 51" fill="none" xmlns="http://www.w3.org/2000/svg">
<path d="M33.3359 50.5V42.1666C37.947 42.1666 41.6693 38.4444 41.6693 33.8333H50.0026C50.0026 43.0555 42.5304 50.5 33.3359 50.5Z" fill="#FFD11A"/>
<path d="M33.3346 50.5V42.1666C28.7235 42.1666 25.0013 38.4444 25.0013 33.8333H16.668C16.668 43.0555 24.1402 50.5 33.3346 50.5Z" fill="#FFD11A"/>
<path d="M0 33.8334H8.33333C8.33333 38.4445 12.0556 42.1667 16.6667 42.1667V50.5C7.47222 50.5 0 43.0556 0 33.8334Z" fill="#FFD11A"/>
<path d="M0 33.8334H8.33333C8.33333 29.2222 12.0556 25.5 16.6667 25.5V17.1667C7.47222 17.1667 0 24.6389 0 33.8334Z" fill="#FFD11A"/>
<path d="M16.6667 0.5V8.83333C12.0556 8.83333 8.33333 12.5556 8.33333 17.1667H0C0 7.97222 7.47222 0.5 16.6667 0.5Z" fill="#FFD11A"/>
<path d="M16.668 0.5V8.83333C21.2791 8.83333 25.0013 12.5556 25.0013 17.1667H33.3346C33.3346 7.97222 25.8624 0.5 16.668 0.5Z" fill="#FFD11A"/>
<path d="M49.9987 17.1667H41.6654C41.6654 12.5556 37.9431 8.83333 33.332 8.83333V0.5C42.5265 0.5 49.9987 7.97222 49.9987 17.1667Z" fill="#FFD11A"/>
<path d="M49.9987 17.1667H41.6654C41.6654 21.7778 37.9431 25.5 33.332 25.5V33.8334C42.5265 33.8334 49.9987 26.3889 49.9987 17.1667Z" fill="#FFD11A"/>
</svg>
